# xmcd
#
# Track frame offsets:
#	150
#	12500
#	32853
#	49729
#	74951
#	101878
#	131063
#	160971
#	183672
#	200697
#	222253
#	261787
#	278671
#	295130
#	316557
#
# Disc length: 4606 seconds
#
# Revision: 1
# Processed by: cddbd v1.5.2PL0 Copyright (c) Steve Scherf et al.
# Submitted via: audiograbber 1.83.01
#
DISCID=ef11fc0f
DTITLE=Grateful Dead - 73-05-13 State Fairgrounds, Des Moines IA
DYEAR=1900
DGENRE=
TTITLE0=Promised Land
TTITLE1=Deal
TTITLE2=Mexicali Blues
TTITLE3=They Love Each Other
TTITLE4=Box Of Rain
TTITLE5=Loser
TTITLE6=China Cat Sunflower
TTITLE7=I Know You Rider
TTITLE8=BIODTL
TTITLE9=El Paso
TTITLE10=Row Jimmy
TTITLE11=Me and My Uncle
TTITLE12=Don't Ease Me In
TTITLE13=Around and Around
TTITLE14=Casey Jones
EXTD=
EXTT0=
EXTT1=
EXTT2=
EXTT3=
EXTT4=
EXTT5=
EXTT6=
EXTT7=
EXTT8=
EXTT9=
EXTT10=
EXTT11=
EXTT12=
EXTT13=
EXTT14=
PLAYORDER=
